<mxfile host="app.diagrams.net" modified="2023-12-07T21:13:33.125Z" agent="Mozilla/5.0 (X11; Linux x86_64) AppleWebKit/537.36 (KHTML, like Gecko) Chrome/117.0.0.0 Safari/537.36" etag="TGOpXDaEnuriaztq81RA" version="22.1.7" type="device">
  <diagram name="Сторінка-1" id="1fwcrDmHTnhquLtKw83d">
    <mxGraphModel dx="3097" dy="1338" grid="1" gridSize="10" guides="1" tooltips="1" connect="1" arrows="1" fold="1" page="1" pageScale="1" pageWidth="827" pageHeight="1169" math="0" shadow="0">
      <root>
        <mxCell id="0" />
        <mxCell id="1" parent="0" />
        <mxCell id="X_ZYGH_IdwUrX7IhcFoQ-15" value="&lt;p style=&quot;margin: 0px; font-stretch: normal; font-size: 13px; line-height: normal; font-family: &amp;quot;Helvetica Neue&amp;quot;;&quot;&gt;&lt;/p&gt;" style="text;html=1;align=left;verticalAlign=middle;resizable=0;points=[];autosize=1;strokeColor=none;fillColor=none;labelBackgroundColor=none;fontColor=#143642;" parent="1" vertex="1">
          <mxGeometry x="-240" y="25" width="20" height="10" as="geometry" />
        </mxCell>
        <mxCell id="X_ZYGH_IdwUrX7IhcFoQ-47" value="Table" style="swimlane;fontStyle=1;align=center;verticalAlign=top;childLayout=stackLayout;horizontal=1;startSize=26;horizontalStack=0;resizeParent=1;resizeParentMax=0;resizeLast=0;collapsible=1;marginBottom=0;whiteSpace=wrap;html=1;strokeColor=#0F8B8D;fontColor=#143642;fillColor=#FAE5C7;" parent="1" vertex="1">
          <mxGeometry x="70" y="1052" width="380" height="108" as="geometry" />
        </mxCell>
        <mxCell id="X_ZYGH_IdwUrX7IhcFoQ-48" value="&lt;span style=&quot;caret-color: rgb(20, 54, 66); font-family: Helvetica; font-size: 12px; font-style: normal; font-variant-caps: normal; font-weight: 400; letter-spacing: normal; text-align: left; text-indent: 0px; text-transform: none; word-spacing: 0px; -webkit-text-stroke-width: 0px; background-color: rgb(251, 251, 251); text-decoration: none; float: none; display: inline !important;&quot;&gt;&lt;font color=&quot;#000000&quot;&gt;+&amp;lt;&amp;lt;property&amp;gt;&amp;gt;Name:String&lt;br&gt;+&amp;lt;&amp;lt;property&amp;gt;&amp;gt;Relations:List&amp;lt;Relation&amp;gt;&lt;br&gt;+ &amp;lt;&amp;lt;property&amp;gt;&amp;gt; Columns:Dictionary&amp;lt;String, Column&amp;gt;&lt;span style=&quot;font-family: &amp;quot;Helvetica Neue&amp;quot;; font-size: 13px;&quot;&gt;&amp;nbsp;&lt;/span&gt;&lt;br&gt;&lt;p style=&quot;margin: 0px; font-stretch: normal; font-size: 13px; line-height: normal; font-family: &amp;quot;Helvetica Neue&amp;quot;;&quot;&gt;+ &amp;lt;&amp;lt;property&amp;gt;&amp;gt; Rows:List&amp;lt;Row&amp;gt;&lt;/p&gt;&lt;/font&gt;&lt;/span&gt;" style="text;strokeColor=none;fillColor=none;align=left;verticalAlign=top;spacingLeft=4;spacingRight=4;overflow=hidden;rotatable=0;points=[[0,0.5],[1,0.5]];portConstraint=eastwest;whiteSpace=wrap;html=1;fontColor=#143642;" parent="X_ZYGH_IdwUrX7IhcFoQ-47" vertex="1">
          <mxGeometry y="26" width="380" height="74" as="geometry" />
        </mxCell>
        <mxCell id="X_ZYGH_IdwUrX7IhcFoQ-49" value="" style="line;strokeWidth=1;fillColor=none;align=left;verticalAlign=middle;spacingTop=-1;spacingLeft=3;spacingRight=3;rotatable=0;labelPosition=right;points=[];portConstraint=eastwest;strokeColor=inherit;fontColor=#143642;" parent="X_ZYGH_IdwUrX7IhcFoQ-47" vertex="1">
          <mxGeometry y="100" width="380" height="8" as="geometry" />
        </mxCell>
        <mxCell id="X_ZYGH_IdwUrX7IhcFoQ-150" style="edgeStyle=orthogonalEdgeStyle;shape=connector;rounded=0;orthogonalLoop=1;jettySize=auto;html=1;labelBackgroundColor=default;strokeColor=#A8201A;align=center;verticalAlign=middle;fontFamily=Helvetica;fontSize=11;fontColor=#143642;endArrow=block;endFill=0;endSize=18;fillColor=#FAE5C7;" parent="1" source="X_ZYGH_IdwUrX7IhcFoQ-51" edge="1">
          <mxGeometry relative="1" as="geometry">
            <mxPoint x="-50" y="1422" as="targetPoint" />
            <Array as="points">
              <mxPoint x="561" y="1482" />
              <mxPoint x="-49" y="1482" />
              <mxPoint x="-49" y="1422" />
            </Array>
          </mxGeometry>
        </mxCell>
        <mxCell id="X_ZYGH_IdwUrX7IhcFoQ-51" value="StringColumn" style="swimlane;fontStyle=1;align=center;verticalAlign=top;childLayout=stackLayout;horizontal=1;startSize=26;horizontalStack=0;resizeParent=1;resizeParentMax=0;resizeLast=0;collapsible=1;marginBottom=0;whiteSpace=wrap;html=1;strokeColor=#0F8B8D;fontColor=#143642;fillColor=#FAE5C7;" parent="1" vertex="1">
          <mxGeometry x="450" y="1702" width="221" height="124" as="geometry" />
        </mxCell>
        <mxCell id="X_ZYGH_IdwUrX7IhcFoQ-52" value="+&amp;lt;&amp;lt;property&amp;gt;&amp;gt; Name:String&lt;br style=&quot;border-color: var(--border-color);&quot;&gt;+&amp;lt;&amp;lt;readonly&amp;gt;&amp;gt; CanBeNull:Bool&lt;br style=&quot;border-color: var(--border-color);&quot;&gt;+&amp;lt;&amp;lt;readonly&amp;gt;&amp;gt;IsPrimaryKey:Bool" style="text;strokeColor=none;fillColor=none;align=left;verticalAlign=top;spacingLeft=4;spacingRight=4;overflow=hidden;rotatable=0;points=[[0,0.5],[1,0.5]];portConstraint=eastwest;whiteSpace=wrap;html=1;fontColor=#143642;" parent="X_ZYGH_IdwUrX7IhcFoQ-51" vertex="1">
          <mxGeometry y="26" width="221" height="64" as="geometry" />
        </mxCell>
        <mxCell id="X_ZYGH_IdwUrX7IhcFoQ-53" value="" style="line;strokeWidth=1;fillColor=none;align=left;verticalAlign=middle;spacingTop=-1;spacingLeft=3;spacingRight=3;rotatable=0;labelPosition=right;points=[];portConstraint=eastwest;strokeColor=inherit;fontColor=#143642;" parent="X_ZYGH_IdwUrX7IhcFoQ-51" vertex="1">
          <mxGeometry y="90" width="221" height="8" as="geometry" />
        </mxCell>
        <mxCell id="X_ZYGH_IdwUrX7IhcFoQ-54" value="+Validate(String value)" style="text;strokeColor=none;fillColor=none;align=left;verticalAlign=top;spacingLeft=4;spacingRight=4;overflow=hidden;rotatable=0;points=[[0,0.5],[1,0.5]];portConstraint=eastwest;whiteSpace=wrap;html=1;fontColor=#143642;" parent="X_ZYGH_IdwUrX7IhcFoQ-51" vertex="1">
          <mxGeometry y="98" width="221" height="26" as="geometry" />
        </mxCell>
        <mxCell id="X_ZYGH_IdwUrX7IhcFoQ-140" style="edgeStyle=orthogonalEdgeStyle;rounded=0;orthogonalLoop=1;jettySize=auto;html=1;strokeColor=#A8201A;fontColor=#143642;fillColor=#FAE5C7;endArrow=diamond;endFill=1;endSize=18;" parent="1" source="X_ZYGH_IdwUrX7IhcFoQ-55" edge="1">
          <mxGeometry relative="1" as="geometry">
            <mxPoint x="140" y="1162" as="targetPoint" />
            <Array as="points">
              <mxPoint x="-25" y="1262" />
              <mxPoint x="141" y="1262" />
              <mxPoint x="141" y="1162" />
            </Array>
          </mxGeometry>
        </mxCell>
        <mxCell id="X_ZYGH_IdwUrX7IhcFoQ-160" value="0..*" style="edgeLabel;html=1;align=center;verticalAlign=middle;resizable=0;points=[];fontSize=11;fontFamily=Helvetica;fontColor=#143642;" parent="X_ZYGH_IdwUrX7IhcFoQ-140" vertex="1" connectable="0">
          <mxGeometry x="-0.8864" y="-1" relative="1" as="geometry">
            <mxPoint as="offset" />
          </mxGeometry>
        </mxCell>
        <mxCell id="X_ZYGH_IdwUrX7IhcFoQ-55" value="Column" style="swimlane;fontStyle=1;align=center;verticalAlign=top;childLayout=stackLayout;horizontal=1;startSize=26;horizontalStack=0;resizeParent=1;resizeParentMax=0;resizeLast=0;collapsible=1;marginBottom=0;whiteSpace=wrap;html=1;strokeColor=#0F8B8D;fontColor=#143642;fillColor=#FAE5C7;" parent="1" vertex="1">
          <mxGeometry x="-130" y="1302" width="210" height="114" as="geometry" />
        </mxCell>
        <mxCell id="X_ZYGH_IdwUrX7IhcFoQ-56" value="+&amp;lt;&amp;lt;property&amp;gt;&amp;gt; Name:String&lt;br style=&quot;border-color: var(--border-color);&quot;&gt;+&amp;lt;&amp;lt;readonly&amp;gt;&amp;gt; CanBeNull:Bool&lt;br style=&quot;border-color: var(--border-color);&quot;&gt;+&amp;lt;&amp;lt;readonly&amp;gt;&amp;gt;IsPrimaryKey:Bool" style="text;strokeColor=none;fillColor=none;align=left;verticalAlign=top;spacingLeft=4;spacingRight=4;overflow=hidden;rotatable=0;points=[[0,0.5],[1,0.5]];portConstraint=eastwest;whiteSpace=wrap;html=1;fontColor=#143642;" parent="X_ZYGH_IdwUrX7IhcFoQ-55" vertex="1">
          <mxGeometry y="26" width="210" height="54" as="geometry" />
        </mxCell>
        <mxCell id="X_ZYGH_IdwUrX7IhcFoQ-57" value="" style="line;strokeWidth=1;fillColor=none;align=left;verticalAlign=middle;spacingTop=-1;spacingLeft=3;spacingRight=3;rotatable=0;labelPosition=right;points=[];portConstraint=eastwest;strokeColor=inherit;fontColor=#143642;" parent="X_ZYGH_IdwUrX7IhcFoQ-55" vertex="1">
          <mxGeometry y="80" width="210" height="8" as="geometry" />
        </mxCell>
        <mxCell id="X_ZYGH_IdwUrX7IhcFoQ-58" value="+Validate(String value)" style="text;strokeColor=none;fillColor=none;align=left;verticalAlign=top;spacingLeft=4;spacingRight=4;overflow=hidden;rotatable=0;points=[[0,0.5],[1,0.5]];portConstraint=eastwest;whiteSpace=wrap;html=1;fontColor=#143642;" parent="X_ZYGH_IdwUrX7IhcFoQ-55" vertex="1">
          <mxGeometry y="88" width="210" height="26" as="geometry" />
        </mxCell>
        <mxCell id="X_ZYGH_IdwUrX7IhcFoQ-142" style="edgeStyle=orthogonalEdgeStyle;shape=connector;rounded=0;orthogonalLoop=1;jettySize=auto;html=1;labelBackgroundColor=default;strokeColor=#A8201A;align=center;verticalAlign=middle;fontFamily=Helvetica;fontSize=11;fontColor=#143642;endArrow=diamond;endFill=1;endSize=18;fillColor=#FAE5C7;" parent="1" source="X_ZYGH_IdwUrX7IhcFoQ-59" edge="1">
          <mxGeometry relative="1" as="geometry">
            <mxPoint x="300" y="1162" as="targetPoint" />
          </mxGeometry>
        </mxCell>
        <mxCell id="X_ZYGH_IdwUrX7IhcFoQ-158" value="0..*" style="edgeLabel;html=1;align=center;verticalAlign=middle;resizable=0;points=[];fontSize=11;fontFamily=Helvetica;fontColor=#143642;" parent="X_ZYGH_IdwUrX7IhcFoQ-142" vertex="1" connectable="0">
          <mxGeometry x="-0.835" y="-1" relative="1" as="geometry">
            <mxPoint as="offset" />
          </mxGeometry>
        </mxCell>
        <mxCell id="X_ZYGH_IdwUrX7IhcFoQ-159" value="1..1" style="edgeLabel;html=1;align=center;verticalAlign=middle;resizable=0;points=[];fontSize=11;fontFamily=Helvetica;fontColor=#143642;" parent="X_ZYGH_IdwUrX7IhcFoQ-142" vertex="1" connectable="0">
          <mxGeometry x="0.652" relative="1" as="geometry">
            <mxPoint as="offset" />
          </mxGeometry>
        </mxCell>
        <mxCell id="X_ZYGH_IdwUrX7IhcFoQ-59" value="Row" style="swimlane;fontStyle=1;align=center;verticalAlign=top;childLayout=stackLayout;horizontal=1;startSize=26;horizontalStack=0;resizeParent=1;resizeParentMax=0;resizeLast=0;collapsible=1;marginBottom=0;whiteSpace=wrap;html=1;strokeColor=#0F8B8D;fontColor=#143642;fillColor=#FAE5C7;" parent="1" vertex="1">
          <mxGeometry x="140" y="1292" width="220" height="60" as="geometry" />
        </mxCell>
        <mxCell id="X_ZYGH_IdwUrX7IhcFoQ-60" value="+&amp;lt;&amp;lt;property&amp;gt;&amp;gt; Values:List&amp;lt;object&amp;gt;" style="text;strokeColor=none;fillColor=none;align=left;verticalAlign=top;spacingLeft=4;spacingRight=4;overflow=hidden;rotatable=0;points=[[0,0.5],[1,0.5]];portConstraint=eastwest;whiteSpace=wrap;html=1;fontColor=#143642;" parent="X_ZYGH_IdwUrX7IhcFoQ-59" vertex="1">
          <mxGeometry y="26" width="220" height="26" as="geometry" />
        </mxCell>
        <mxCell id="X_ZYGH_IdwUrX7IhcFoQ-61" value="" style="line;strokeWidth=1;fillColor=none;align=left;verticalAlign=middle;spacingTop=-1;spacingLeft=3;spacingRight=3;rotatable=0;labelPosition=right;points=[];portConstraint=eastwest;strokeColor=inherit;fontColor=#143642;" parent="X_ZYGH_IdwUrX7IhcFoQ-59" vertex="1">
          <mxGeometry y="52" width="220" height="8" as="geometry" />
        </mxCell>
        <mxCell id="X_ZYGH_IdwUrX7IhcFoQ-152" style="edgeStyle=orthogonalEdgeStyle;shape=connector;rounded=0;orthogonalLoop=1;jettySize=auto;html=1;labelBackgroundColor=default;strokeColor=#A8201A;align=center;verticalAlign=middle;fontFamily=Helvetica;fontSize=11;fontColor=#143642;endArrow=block;endFill=0;endSize=18;fillColor=#FAE5C7;" parent="1" source="X_ZYGH_IdwUrX7IhcFoQ-63" edge="1">
          <mxGeometry relative="1" as="geometry">
            <mxPoint x="-50" y="1422" as="targetPoint" />
            <Array as="points">
              <mxPoint x="270" y="1482" />
              <mxPoint x="-49" y="1482" />
              <mxPoint x="-49" y="1422" />
            </Array>
          </mxGeometry>
        </mxCell>
        <mxCell id="X_ZYGH_IdwUrX7IhcFoQ-63" value="CharColumn" style="swimlane;fontStyle=1;align=center;verticalAlign=top;childLayout=stackLayout;horizontal=1;startSize=26;horizontalStack=0;resizeParent=1;resizeParentMax=0;resizeLast=0;collapsible=1;marginBottom=0;whiteSpace=wrap;html=1;strokeColor=#0F8B8D;fontColor=#143642;fillColor=#FAE5C7;" parent="1" vertex="1">
          <mxGeometry x="140" y="1702" width="260" height="114" as="geometry" />
        </mxCell>
        <mxCell id="X_ZYGH_IdwUrX7IhcFoQ-64" value="+&amp;lt;&amp;lt;property&amp;gt;&amp;gt; Name:String&lt;br style=&quot;border-color: var(--border-color);&quot;&gt;+&amp;lt;&amp;lt;readonly&amp;gt;&amp;gt; CanBeNull:Bool&lt;br style=&quot;border-color: var(--border-color);&quot;&gt;+&amp;lt;&amp;lt;readonly&amp;gt;&amp;gt;IsPrimaryKey:Bool" style="text;strokeColor=none;fillColor=none;align=left;verticalAlign=top;spacingLeft=4;spacingRight=4;overflow=hidden;rotatable=0;points=[[0,0.5],[1,0.5]];portConstraint=eastwest;whiteSpace=wrap;html=1;fontColor=#143642;" parent="X_ZYGH_IdwUrX7IhcFoQ-63" vertex="1">
          <mxGeometry y="26" width="260" height="54" as="geometry" />
        </mxCell>
        <mxCell id="X_ZYGH_IdwUrX7IhcFoQ-65" value="" style="line;strokeWidth=1;fillColor=none;align=left;verticalAlign=middle;spacingTop=-1;spacingLeft=3;spacingRight=3;rotatable=0;labelPosition=right;points=[];portConstraint=eastwest;strokeColor=inherit;fontColor=#143642;" parent="X_ZYGH_IdwUrX7IhcFoQ-63" vertex="1">
          <mxGeometry y="80" width="260" height="8" as="geometry" />
        </mxCell>
        <mxCell id="X_ZYGH_IdwUrX7IhcFoQ-66" value="+Validate(String value)" style="text;strokeColor=none;fillColor=none;align=left;verticalAlign=top;spacingLeft=4;spacingRight=4;overflow=hidden;rotatable=0;points=[[0,0.5],[1,0.5]];portConstraint=eastwest;whiteSpace=wrap;html=1;fontColor=#143642;" parent="X_ZYGH_IdwUrX7IhcFoQ-63" vertex="1">
          <mxGeometry y="88" width="260" height="26" as="geometry" />
        </mxCell>
        <mxCell id="X_ZYGH_IdwUrX7IhcFoQ-67" value="&amp;lt;&amp;lt;interface&amp;gt;&amp;gt; IDbSearcher" style="swimlane;fontStyle=1;align=center;verticalAlign=top;childLayout=stackLayout;horizontal=1;startSize=26;horizontalStack=0;resizeParent=1;resizeParentMax=0;resizeLast=0;collapsible=1;marginBottom=0;whiteSpace=wrap;html=1;strokeColor=#0F8B8D;fontColor=#143642;fillColor=#FAE5C7;" parent="1" vertex="1">
          <mxGeometry x="-140" y="882" width="230" height="78" as="geometry" />
        </mxCell>
        <mxCell id="X_ZYGH_IdwUrX7IhcFoQ-68" value="&lt;p style=&quot;border-color: var(--border-color); margin: 0px; font-stretch: normal; font-size: 13px; line-height: normal; font-family: &amp;quot;Helvetica Neue&amp;quot;;&quot;&gt;&lt;font style=&quot;border-color: var(--border-color);&quot; color=&quot;#000000&quot;&gt;+ Search (Table table, List&amp;lt;objects searchValues)&lt;/font&gt;&lt;/p&gt;&lt;font style=&quot;border-color: var(--border-color);&quot; color=&quot;#000000&quot;&gt;&lt;/font&gt;" style="text;strokeColor=none;fillColor=none;align=left;verticalAlign=top;spacingLeft=4;spacingRight=4;overflow=hidden;rotatable=0;points=[[0,0.5],[1,0.5]];portConstraint=eastwest;whiteSpace=wrap;html=1;fontColor=#143642;" parent="X_ZYGH_IdwUrX7IhcFoQ-67" vertex="1">
          <mxGeometry y="26" width="230" height="44" as="geometry" />
        </mxCell>
        <mxCell id="X_ZYGH_IdwUrX7IhcFoQ-69" value="" style="line;strokeWidth=1;fillColor=none;align=left;verticalAlign=middle;spacingTop=-1;spacingLeft=3;spacingRight=3;rotatable=0;labelPosition=right;points=[];portConstraint=eastwest;strokeColor=inherit;fontColor=#143642;" parent="X_ZYGH_IdwUrX7IhcFoQ-67" vertex="1">
          <mxGeometry y="70" width="230" height="8" as="geometry" />
        </mxCell>
        <mxCell id="X_ZYGH_IdwUrX7IhcFoQ-143" style="edgeStyle=orthogonalEdgeStyle;shape=connector;rounded=0;orthogonalLoop=1;jettySize=auto;html=1;labelBackgroundColor=default;strokeColor=#A8201A;align=center;verticalAlign=middle;fontFamily=Helvetica;fontSize=11;fontColor=#143642;endArrow=diamond;endFill=1;endSize=18;fillColor=#FAE5C7;" parent="1" source="X_ZYGH_IdwUrX7IhcFoQ-71" target="X_ZYGH_IdwUrX7IhcFoQ-48" edge="1">
          <mxGeometry relative="1" as="geometry" />
        </mxCell>
        <mxCell id="X_ZYGH_IdwUrX7IhcFoQ-161" value="0..*" style="edgeLabel;html=1;align=center;verticalAlign=middle;resizable=0;points=[];fontSize=11;fontFamily=Helvetica;fontColor=#143642;" parent="X_ZYGH_IdwUrX7IhcFoQ-143" vertex="1" connectable="0">
          <mxGeometry x="-0.9055" y="-4" relative="1" as="geometry">
            <mxPoint as="offset" />
          </mxGeometry>
        </mxCell>
        <mxCell id="X_ZYGH_IdwUrX7IhcFoQ-162" value="1..1" style="edgeLabel;html=1;align=center;verticalAlign=middle;resizable=0;points=[];fontSize=11;fontFamily=Helvetica;fontColor=#143642;" parent="X_ZYGH_IdwUrX7IhcFoQ-143" vertex="1" connectable="0">
          <mxGeometry x="0.7485" y="-2" relative="1" as="geometry">
            <mxPoint as="offset" />
          </mxGeometry>
        </mxCell>
        <mxCell id="X_ZYGH_IdwUrX7IhcFoQ-71" value="Relation" style="swimlane;fontStyle=1;align=center;verticalAlign=top;childLayout=stackLayout;horizontal=1;startSize=26;horizontalStack=0;resizeParent=1;resizeParentMax=0;resizeLast=0;collapsible=1;marginBottom=0;whiteSpace=wrap;html=1;strokeColor=#0F8B8D;fontColor=#143642;fillColor=#FAE5C7;" parent="1" vertex="1">
          <mxGeometry x="530" y="1302" width="270" height="100" as="geometry" />
        </mxCell>
        <mxCell id="X_ZYGH_IdwUrX7IhcFoQ-72" value="+&amp;lt;&amp;lt;property&amp;gt;&amp;gt; ForeginKeyColumn:Column&lt;br&gt;+&amp;lt;&amp;lt;property&amp;gt;&amp;gt;OriginColumn:Column" style="text;strokeColor=none;fillColor=none;align=left;verticalAlign=top;spacingLeft=4;spacingRight=4;overflow=hidden;rotatable=0;points=[[0,0.5],[1,0.5]];portConstraint=eastwest;whiteSpace=wrap;html=1;fontColor=#143642;" parent="X_ZYGH_IdwUrX7IhcFoQ-71" vertex="1">
          <mxGeometry y="26" width="270" height="44" as="geometry" />
        </mxCell>
        <mxCell id="X_ZYGH_IdwUrX7IhcFoQ-73" value="" style="line;strokeWidth=1;fillColor=none;align=left;verticalAlign=middle;spacingTop=-1;spacingLeft=3;spacingRight=3;rotatable=0;labelPosition=right;points=[];portConstraint=eastwest;strokeColor=inherit;fontColor=#143642;" parent="X_ZYGH_IdwUrX7IhcFoQ-71" vertex="1">
          <mxGeometry y="70" width="270" height="30" as="geometry" />
        </mxCell>
        <mxCell id="X_ZYGH_IdwUrX7IhcFoQ-75" value="Database" style="swimlane;fontStyle=1;align=center;verticalAlign=top;childLayout=stackLayout;horizontal=1;startSize=26;horizontalStack=0;resizeParent=1;resizeParentMax=0;resizeLast=0;collapsible=1;marginBottom=0;whiteSpace=wrap;html=1;strokeColor=#0F8B8D;fontColor=#143642;fillColor=#FAE5C7;" parent="1" vertex="1">
          <mxGeometry x="-260" y="1122" width="260" height="88" as="geometry" />
        </mxCell>
        <mxCell id="X_ZYGH_IdwUrX7IhcFoQ-76" value="+&amp;lt;&amp;lt;property&amp;gt;&amp;gt;Name:String&lt;br&gt;+&amp;lt;&amp;lt;property&amp;gt;&amp;gt;Tables:Dictionary&amp;lt;String,Table&amp;gt;" style="text;strokeColor=none;fillColor=none;align=left;verticalAlign=top;spacingLeft=4;spacingRight=4;overflow=hidden;rotatable=0;points=[[0,0.5],[1,0.5]];portConstraint=eastwest;whiteSpace=wrap;html=1;fontColor=#143642;" parent="X_ZYGH_IdwUrX7IhcFoQ-75" vertex="1">
          <mxGeometry y="26" width="260" height="54" as="geometry" />
        </mxCell>
        <mxCell id="X_ZYGH_IdwUrX7IhcFoQ-77" value="" style="line;strokeWidth=1;fillColor=none;align=left;verticalAlign=middle;spacingTop=-1;spacingLeft=3;spacingRight=3;rotatable=0;labelPosition=right;points=[];portConstraint=eastwest;strokeColor=inherit;fontColor=#143642;" parent="X_ZYGH_IdwUrX7IhcFoQ-75" vertex="1">
          <mxGeometry y="80" width="260" height="8" as="geometry" />
        </mxCell>
        <mxCell id="X_ZYGH_IdwUrX7IhcFoQ-147" style="edgeStyle=orthogonalEdgeStyle;shape=connector;rounded=0;orthogonalLoop=1;jettySize=auto;html=1;labelBackgroundColor=default;strokeColor=#A8201A;align=center;verticalAlign=middle;fontFamily=Helvetica;fontSize=11;fontColor=#143642;endArrow=block;endFill=0;endSize=18;fillColor=#FAE5C7;" parent="1" source="X_ZYGH_IdwUrX7IhcFoQ-79" edge="1">
          <mxGeometry relative="1" as="geometry">
            <mxPoint x="-50" y="1422" as="targetPoint" />
            <Array as="points">
              <mxPoint x="-50" y="1560" />
              <mxPoint x="-49" y="1422" />
            </Array>
          </mxGeometry>
        </mxCell>
        <mxCell id="X_ZYGH_IdwUrX7IhcFoQ-79" value="RealColumn" style="swimlane;fontStyle=1;align=center;verticalAlign=top;childLayout=stackLayout;horizontal=1;startSize=26;horizontalStack=0;resizeParent=1;resizeParentMax=0;resizeLast=0;collapsible=1;marginBottom=0;whiteSpace=wrap;html=1;strokeColor=#0F8B8D;fontColor=#143642;fillColor=#FAE5C7;" parent="1" vertex="1">
          <mxGeometry x="-160" y="1687" width="240" height="124" as="geometry" />
        </mxCell>
        <mxCell id="X_ZYGH_IdwUrX7IhcFoQ-80" value="+&amp;lt;&amp;lt;property&amp;gt;&amp;gt; Name:String&lt;br style=&quot;border-color: var(--border-color);&quot;&gt;+&amp;lt;&amp;lt;readonly&amp;gt;&amp;gt; CanBeNull:Bool&lt;br style=&quot;border-color: var(--border-color);&quot;&gt;+&amp;lt;&amp;lt;readonly&amp;gt;&amp;gt;IsPrimaryKey:Bool" style="text;strokeColor=none;fillColor=none;align=left;verticalAlign=top;spacingLeft=4;spacingRight=4;overflow=hidden;rotatable=0;points=[[0,0.5],[1,0.5]];portConstraint=eastwest;whiteSpace=wrap;html=1;fontColor=#143642;" parent="X_ZYGH_IdwUrX7IhcFoQ-79" vertex="1">
          <mxGeometry y="26" width="240" height="64" as="geometry" />
        </mxCell>
        <mxCell id="X_ZYGH_IdwUrX7IhcFoQ-81" value="" style="line;strokeWidth=1;fillColor=none;align=left;verticalAlign=middle;spacingTop=-1;spacingLeft=3;spacingRight=3;rotatable=0;labelPosition=right;points=[];portConstraint=eastwest;strokeColor=inherit;fontColor=#143642;" parent="X_ZYGH_IdwUrX7IhcFoQ-79" vertex="1">
          <mxGeometry y="90" width="240" height="8" as="geometry" />
        </mxCell>
        <mxCell id="X_ZYGH_IdwUrX7IhcFoQ-82" value="+Validate(String value)" style="text;strokeColor=none;fillColor=none;align=left;verticalAlign=top;spacingLeft=4;spacingRight=4;overflow=hidden;rotatable=0;points=[[0,0.5],[1,0.5]];portConstraint=eastwest;whiteSpace=wrap;html=1;fontColor=#143642;" parent="X_ZYGH_IdwUrX7IhcFoQ-79" vertex="1">
          <mxGeometry y="98" width="240" height="26" as="geometry" />
        </mxCell>
        <mxCell id="X_ZYGH_IdwUrX7IhcFoQ-144" style="edgeStyle=orthogonalEdgeStyle;shape=connector;rounded=0;orthogonalLoop=1;jettySize=auto;html=1;labelBackgroundColor=default;strokeColor=#A8201A;align=center;verticalAlign=middle;fontFamily=Helvetica;fontSize=11;fontColor=#143642;endArrow=block;endFill=0;endSize=18;fillColor=#FAE5C7;" parent="1" source="X_ZYGH_IdwUrX7IhcFoQ-83" edge="1">
          <mxGeometry relative="1" as="geometry">
            <mxPoint x="-50" y="1422" as="targetPoint" />
            <Array as="points">
              <mxPoint x="-315" y="1480" />
              <mxPoint x="-49" y="1480" />
              <mxPoint x="-49" y="1422" />
            </Array>
          </mxGeometry>
        </mxCell>
        <mxCell id="X_ZYGH_IdwUrX7IhcFoQ-83" value="TextfileColumn" style="swimlane;fontStyle=1;align=center;verticalAlign=top;childLayout=stackLayout;horizontal=1;startSize=26;horizontalStack=0;resizeParent=1;resizeParentMax=0;resizeLast=0;collapsible=1;marginBottom=0;whiteSpace=wrap;html=1;strokeColor=#0F8B8D;fontColor=#143642;fillColor=#FAE5C7;" parent="1" vertex="1">
          <mxGeometry x="-490" y="1697" width="290" height="114" as="geometry" />
        </mxCell>
        <mxCell id="X_ZYGH_IdwUrX7IhcFoQ-84" value="+&amp;lt;&amp;lt;property&amp;gt;&amp;gt; Name:String&lt;br&gt;+&amp;lt;&amp;lt;readonly&amp;gt;&amp;gt; CanBeNull:Bool&lt;br&gt;+&amp;lt;&amp;lt;readonly&amp;gt;&amp;gt;IsPrimaryKey:Bool" style="text;strokeColor=none;fillColor=none;align=left;verticalAlign=top;spacingLeft=4;spacingRight=4;overflow=hidden;rotatable=0;points=[[0,0.5],[1,0.5]];portConstraint=eastwest;whiteSpace=wrap;html=1;fontColor=#143642;" parent="X_ZYGH_IdwUrX7IhcFoQ-83" vertex="1">
          <mxGeometry y="26" width="290" height="54" as="geometry" />
        </mxCell>
        <mxCell id="X_ZYGH_IdwUrX7IhcFoQ-85" value="" style="line;strokeWidth=1;fillColor=none;align=left;verticalAlign=middle;spacingTop=-1;spacingLeft=3;spacingRight=3;rotatable=0;labelPosition=right;points=[];portConstraint=eastwest;strokeColor=inherit;fontColor=#143642;" parent="X_ZYGH_IdwUrX7IhcFoQ-83" vertex="1">
          <mxGeometry y="80" width="290" height="8" as="geometry" />
        </mxCell>
        <mxCell id="X_ZYGH_IdwUrX7IhcFoQ-86" value="+Validate(String value)" style="text;strokeColor=none;fillColor=none;align=left;verticalAlign=top;spacingLeft=4;spacingRight=4;overflow=hidden;rotatable=0;points=[[0,0.5],[1,0.5]];portConstraint=eastwest;whiteSpace=wrap;html=1;fontColor=#143642;" parent="X_ZYGH_IdwUrX7IhcFoQ-83" vertex="1">
          <mxGeometry y="88" width="290" height="26" as="geometry" />
        </mxCell>
        <mxCell id="X_ZYGH_IdwUrX7IhcFoQ-87" value="DbSearcher" style="swimlane;fontStyle=1;align=center;verticalAlign=top;childLayout=stackLayout;horizontal=1;startSize=26;horizontalStack=0;resizeParent=1;resizeParentMax=0;resizeLast=0;collapsible=1;marginBottom=0;whiteSpace=wrap;html=1;strokeColor=#0F8B8D;fontColor=#143642;fillColor=#FAE5C7;" parent="1" vertex="1">
          <mxGeometry x="220" y="902" width="260" height="100" as="geometry" />
        </mxCell>
        <mxCell id="X_ZYGH_IdwUrX7IhcFoQ-89" value="" style="line;strokeWidth=1;fillColor=none;align=left;verticalAlign=middle;spacingTop=-1;spacingLeft=3;spacingRight=3;rotatable=0;labelPosition=right;points=[];portConstraint=eastwest;strokeColor=inherit;fontColor=#143642;" parent="X_ZYGH_IdwUrX7IhcFoQ-87" vertex="1">
          <mxGeometry y="26" width="260" height="8" as="geometry" />
        </mxCell>
        <mxCell id="X_ZYGH_IdwUrX7IhcFoQ-90" value="&lt;span style=&quot;color: rgb(0, 0, 0); font-family: &amp;quot;Helvetica Neue&amp;quot;; font-size: 13px;&quot;&gt;+ Search (Table table, List&amp;lt;objects searchValues)&lt;/span&gt;" style="text;strokeColor=none;fillColor=none;align=left;verticalAlign=top;spacingLeft=4;spacingRight=4;overflow=hidden;rotatable=0;points=[[0,0.5],[1,0.5]];portConstraint=eastwest;whiteSpace=wrap;html=1;fontColor=#143642;" parent="X_ZYGH_IdwUrX7IhcFoQ-87" vertex="1">
          <mxGeometry y="34" width="260" height="66" as="geometry" />
        </mxCell>
        <mxCell id="X_ZYGH_IdwUrX7IhcFoQ-91" value="&amp;lt;&amp;lt;interface&amp;gt;&amp;gt; IDbWriter" style="swimlane;fontStyle=1;align=center;verticalAlign=top;childLayout=stackLayout;horizontal=1;startSize=26;horizontalStack=0;resizeParent=1;resizeParentMax=0;resizeLast=0;collapsible=1;marginBottom=0;whiteSpace=wrap;html=1;strokeColor=#0F8B8D;fontColor=#143642;fillColor=#FAE5C7;" parent="1" vertex="1">
          <mxGeometry x="-130" y="742" width="160" height="60" as="geometry" />
        </mxCell>
        <mxCell id="X_ZYGH_IdwUrX7IhcFoQ-92" value="&lt;font size=&quot;2&quot; face=&quot;Helvetica Neue&quot; color=&quot;#000000&quot;&gt;+ Write(String fileName)&lt;/font&gt;" style="text;strokeColor=none;fillColor=none;align=left;verticalAlign=top;spacingLeft=4;spacingRight=4;overflow=hidden;rotatable=0;points=[[0,0.5],[1,0.5]];portConstraint=eastwest;whiteSpace=wrap;html=1;fontColor=#143642;" parent="X_ZYGH_IdwUrX7IhcFoQ-91" vertex="1">
          <mxGeometry y="26" width="160" height="26" as="geometry" />
        </mxCell>
        <mxCell id="X_ZYGH_IdwUrX7IhcFoQ-93" value="" style="line;strokeWidth=1;fillColor=none;align=left;verticalAlign=middle;spacingTop=-1;spacingLeft=3;spacingRight=3;rotatable=0;labelPosition=right;points=[];portConstraint=eastwest;strokeColor=inherit;fontColor=#143642;" parent="X_ZYGH_IdwUrX7IhcFoQ-91" vertex="1">
          <mxGeometry y="52" width="160" height="8" as="geometry" />
        </mxCell>
        <mxCell id="X_ZYGH_IdwUrX7IhcFoQ-95" value="DbWriter" style="swimlane;fontStyle=1;align=center;verticalAlign=top;childLayout=stackLayout;horizontal=1;startSize=26;horizontalStack=0;resizeParent=1;resizeParentMax=0;resizeLast=0;collapsible=1;marginBottom=0;whiteSpace=wrap;html=1;strokeColor=#0F8B8D;fontColor=#143642;fillColor=#FAE5C7;" parent="1" vertex="1">
          <mxGeometry x="230" y="753" width="160" height="100" as="geometry" />
        </mxCell>
        <mxCell id="X_ZYGH_IdwUrX7IhcFoQ-97" value="" style="line;strokeWidth=1;fillColor=none;align=left;verticalAlign=middle;spacingTop=-1;spacingLeft=3;spacingRight=3;rotatable=0;labelPosition=right;points=[];portConstraint=eastwest;strokeColor=inherit;fontColor=#143642;" parent="X_ZYGH_IdwUrX7IhcFoQ-95" vertex="1">
          <mxGeometry y="26" width="160" height="44" as="geometry" />
        </mxCell>
        <mxCell id="X_ZYGH_IdwUrX7IhcFoQ-98" value="&lt;p style=&quot;border-color: var(--border-color); margin: 0px; font-stretch: normal; font-size: 13px; line-height: normal; font-family: &amp;quot;Helvetica Neue&amp;quot;;&quot;&gt;&lt;font style=&quot;border-color: var(--border-color);&quot; color=&quot;#000000&quot;&gt;+ Write(String fileName)&lt;/font&gt;&lt;/p&gt;&lt;font style=&quot;border-color: var(--border-color);&quot; color=&quot;#000000&quot;&gt;&lt;/font&gt;" style="text;strokeColor=none;fillColor=none;align=left;verticalAlign=top;spacingLeft=4;spacingRight=4;overflow=hidden;rotatable=0;points=[[0,0.5],[1,0.5]];portConstraint=eastwest;whiteSpace=wrap;html=1;fontColor=#143642;" parent="X_ZYGH_IdwUrX7IhcFoQ-95" vertex="1">
          <mxGeometry y="70" width="160" height="30" as="geometry" />
        </mxCell>
        <mxCell id="X_ZYGH_IdwUrX7IhcFoQ-99" value="DbReader" style="swimlane;fontStyle=1;align=center;verticalAlign=top;childLayout=stackLayout;horizontal=1;startSize=26;horizontalStack=0;resizeParent=1;resizeParentMax=0;resizeLast=0;collapsible=1;marginBottom=0;whiteSpace=wrap;html=1;strokeColor=#0F8B8D;fontColor=#143642;fillColor=#FAE5C7;" parent="1" vertex="1">
          <mxGeometry x="190" y="582" width="160" height="126" as="geometry" />
        </mxCell>
        <mxCell id="X_ZYGH_IdwUrX7IhcFoQ-101" value="" style="line;strokeWidth=1;fillColor=none;align=left;verticalAlign=middle;spacingTop=-1;spacingLeft=3;spacingRight=3;rotatable=0;labelPosition=right;points=[];portConstraint=eastwest;strokeColor=inherit;fontColor=#143642;" parent="X_ZYGH_IdwUrX7IhcFoQ-99" vertex="1">
          <mxGeometry y="26" width="160" height="54" as="geometry" />
        </mxCell>
        <mxCell id="X_ZYGH_IdwUrX7IhcFoQ-102" value="+ Read(String fileName)" style="text;strokeColor=none;fillColor=none;align=left;verticalAlign=top;spacingLeft=4;spacingRight=4;overflow=hidden;rotatable=0;points=[[0,0.5],[1,0.5]];portConstraint=eastwest;whiteSpace=wrap;html=1;fontColor=#143642;" parent="X_ZYGH_IdwUrX7IhcFoQ-99" vertex="1">
          <mxGeometry y="80" width="160" height="46" as="geometry" />
        </mxCell>
        <mxCell id="X_ZYGH_IdwUrX7IhcFoQ-121" style="edgeStyle=orthogonalEdgeStyle;rounded=0;orthogonalLoop=1;jettySize=auto;html=1;entryX=1;entryY=0.5;entryDx=0;entryDy=0;strokeColor=#A8201A;fontColor=#143642;fillColor=#FAE5C7;endArrow=diamond;endFill=0;" parent="1" source="X_ZYGH_IdwUrX7IhcFoQ-103" target="X_ZYGH_IdwUrX7IhcFoQ-108" edge="1">
          <mxGeometry relative="1" as="geometry" />
        </mxCell>
        <mxCell id="X_ZYGH_IdwUrX7IhcFoQ-172" value="1..1" style="edgeLabel;html=1;align=center;verticalAlign=middle;resizable=0;points=[];fontSize=11;fontFamily=Helvetica;fontColor=#143642;" parent="X_ZYGH_IdwUrX7IhcFoQ-121" vertex="1" connectable="0">
          <mxGeometry x="0.6296" y="-1" relative="1" as="geometry">
            <mxPoint as="offset" />
          </mxGeometry>
        </mxCell>
        <mxCell id="X_ZYGH_IdwUrX7IhcFoQ-173" value="1..1" style="edgeLabel;html=1;align=center;verticalAlign=middle;resizable=0;points=[];fontSize=11;fontFamily=Helvetica;fontColor=#143642;" parent="X_ZYGH_IdwUrX7IhcFoQ-121" vertex="1" connectable="0">
          <mxGeometry x="-0.7928" y="-2" relative="1" as="geometry">
            <mxPoint x="1" as="offset" />
          </mxGeometry>
        </mxCell>
        <mxCell id="X_ZYGH_IdwUrX7IhcFoQ-103" value="&amp;lt;interface&amp;gt;&amp;gt; &amp;nbsp;IDbReader" style="swimlane;fontStyle=1;align=center;verticalAlign=top;childLayout=stackLayout;horizontal=1;startSize=26;horizontalStack=0;resizeParent=1;resizeParentMax=0;resizeLast=0;collapsible=1;marginBottom=0;whiteSpace=wrap;html=1;strokeColor=#0F8B8D;fontColor=#143642;fillColor=#FAE5C7;" parent="1" vertex="1">
          <mxGeometry x="-200" y="572" width="240" height="70" as="geometry" />
        </mxCell>
        <mxCell id="X_ZYGH_IdwUrX7IhcFoQ-104" value="&lt;p style=&quot;border-color: var(--border-color); margin: 0px; font-stretch: normal; font-size: 13px; line-height: normal; font-family: &amp;quot;Helvetica Neue&amp;quot;;&quot;&gt;&lt;font style=&quot;border-color: var(--border-color);&quot; color=&quot;#000000&quot;&gt;+Read(String fileName)&lt;/font&gt;&lt;/p&gt;&lt;font style=&quot;border-color: var(--border-color);&quot; color=&quot;#000000&quot;&gt;&lt;/font&gt;" style="text;strokeColor=none;fillColor=none;align=left;verticalAlign=top;spacingLeft=4;spacingRight=4;overflow=hidden;rotatable=0;points=[[0,0.5],[1,0.5]];portConstraint=eastwest;whiteSpace=wrap;html=1;fontColor=#143642;" parent="X_ZYGH_IdwUrX7IhcFoQ-103" vertex="1">
          <mxGeometry y="26" width="240" height="44" as="geometry" />
        </mxCell>
        <mxCell id="X_ZYGH_IdwUrX7IhcFoQ-105" value="" style="line;strokeWidth=1;fillColor=none;align=left;verticalAlign=middle;spacingTop=-1;spacingLeft=3;spacingRight=3;rotatable=0;labelPosition=right;points=[];portConstraint=eastwest;strokeColor=inherit;fontColor=#143642;" parent="X_ZYGH_IdwUrX7IhcFoQ-103" vertex="1">
          <mxGeometry y="70" width="240" as="geometry" />
        </mxCell>
        <mxCell id="X_ZYGH_IdwUrX7IhcFoQ-107" value="DatabaseManager&lt;br&gt;" style="swimlane;fontStyle=1;align=center;verticalAlign=top;childLayout=stackLayout;horizontal=1;startSize=26;horizontalStack=0;resizeParent=1;resizeParentMax=0;resizeLast=0;collapsible=1;marginBottom=0;whiteSpace=wrap;html=1;strokeColor=#0F8B8D;fontColor=#143642;fillColor=#FAE5C7;" parent="1" vertex="1">
          <mxGeometry x="-810" y="551" width="510" height="702" as="geometry" />
        </mxCell>
        <mxCell id="X_ZYGH_IdwUrX7IhcFoQ-108" value="&lt;p style=&quot;margin: 0px; font-stretch: normal; font-size: 13px; line-height: normal; font-family: &amp;quot;Helvetica Neue&amp;quot;;&quot;&gt;&lt;span style=&quot;color: rgb(0, 0, 0);&quot;&gt;+ &amp;lt;&amp;lt;property&amp;gt;&amp;gt; Databases:Dictionary&amp;lt;String, Database&amp;gt;&lt;/span&gt;&lt;br&gt;&lt;/p&gt;&lt;br&gt;&lt;p style=&quot;margin: 0px; font-stretch: normal; font-size: 13px; line-height: normal; font-family: &amp;quot;Helvetica Neue&amp;quot;;&quot;&gt;&lt;font color=&quot;#000000&quot;&gt;-﻿﻿&amp;lt;&amp;lt;property&amp;gt;&amp;gt;_currentDatabaseName:String&lt;/font&gt;&lt;/p&gt;&lt;br&gt;&lt;p style=&quot;margin: 0px; font-stretch: normal; font-size: 13px; line-height: normal; font-family: &amp;quot;Helvetica Neue&amp;quot;;&quot;&gt;&lt;font color=&quot;#000000&quot;&gt;- &amp;lt;&amp;lt;property&amp;gt;&amp;gt; _currentTableName:String&lt;/font&gt;&lt;/p&gt;&lt;br&gt;&lt;p style=&quot;margin: 0px; font-stretch: normal; font-size: 13px; line-height: normal; font-family: &amp;quot;Helvetica Neue&amp;quot;;&quot;&gt;&lt;font color=&quot;#000000&quot;&gt;-﻿﻿&amp;lt;&amp;lt;readonly&amp;gt;&amp;gt; _dbReader:IDbReader&lt;/font&gt;&lt;/p&gt;&lt;br&gt;&lt;p style=&quot;margin: 0px; font-stretch: normal; font-size: 13px; line-height: normal; font-family: &amp;quot;Helvetica Neue&amp;quot;;&quot;&gt;&lt;font color=&quot;#000000&quot;&gt;-&amp;lt;&amp;lt;readonly&amp;gt;&amp;gt; _dbWriter:IDbWriter&lt;/font&gt;&lt;/p&gt;&lt;br&gt;&lt;p style=&quot;margin: 0px; font-stretch: normal; font-size: 13px; line-height: normal; font-family: &amp;quot;Helvetica Neue&amp;quot;;&quot;&gt;&lt;font color=&quot;#000000&quot;&gt;-﻿﻿&amp;lt;&amp;lt;readonly&amp;gt;&amp;gt; _dbSearcher:IDbSearcher&lt;/font&gt;&lt;/p&gt;&lt;br&gt;&lt;p style=&quot;margin: 0px; font-stretch: normal; font-size: 13px; line-height: normal; font-family: &amp;quot;Helvetica Neue&amp;quot;;&quot;&gt;&lt;font color=&quot;#000000&quot;&gt;-﻿﻿&amp;lt;&amp;lt;property&amp;gt;&amp;gt; _instance:DatabaseManager&lt;/font&gt;&lt;/p&gt;&lt;br&gt;&lt;p style=&quot;margin: 0px; font-stretch: normal; font-size: 13px; line-height: normal; font-family: &amp;quot;Helvetica Neue&amp;quot;; min-height: 15px;&quot;&gt;&lt;br&gt;&lt;/p&gt;" style="text;strokeColor=none;fillColor=none;align=left;verticalAlign=top;spacingLeft=4;spacingRight=4;overflow=hidden;rotatable=0;points=[[0,0.5],[1,0.5]];portConstraint=eastwest;whiteSpace=wrap;html=1;fontColor=#143642;" parent="X_ZYGH_IdwUrX7IhcFoQ-107" vertex="1">
          <mxGeometry y="26" width="510" height="214" as="geometry" />
        </mxCell>
        <mxCell id="X_ZYGH_IdwUrX7IhcFoQ-109" value="" style="line;strokeWidth=1;fillColor=none;align=left;verticalAlign=middle;spacingTop=-1;spacingLeft=3;spacingRight=3;rotatable=0;labelPosition=right;points=[];portConstraint=eastwest;strokeColor=inherit;fontColor=#143642;" parent="X_ZYGH_IdwUrX7IhcFoQ-107" vertex="1">
          <mxGeometry y="240" width="510" height="8" as="geometry" />
        </mxCell>
        <mxCell id="X_ZYGH_IdwUrX7IhcFoQ-110" value="&lt;font size=&quot;2&quot; face=&quot;Helvetica Neue&quot; color=&quot;#000000&quot;&gt;+Getinstance()&lt;/font&gt;&lt;br&gt;&lt;br style=&quot;border-color: var(--border-color);&quot;&gt;&lt;p style=&quot;border-color: var(--border-color); margin: 0px; font-stretch: normal; font-size: 13px; line-height: normal; font-family: &amp;quot;Helvetica Neue&amp;quot;;&quot;&gt;&lt;font style=&quot;border-color: var(--border-color);&quot; color=&quot;#000000&quot;&gt;+ReadaaseFromFle(Sting fileName)&lt;/font&gt;&lt;/p&gt;&lt;br style=&quot;border-color: var(--border-color);&quot;&gt;&lt;p style=&quot;border-color: var(--border-color); margin: 0px; font-stretch: normal; font-size: 13px; line-height: normal; font-family: &amp;quot;Helvetica Neue&amp;quot;;&quot;&gt;&lt;font style=&quot;border-color: var(--border-color);&quot; color=&quot;#000000&quot;&gt;+ WriteDatabases ToFile(List&amp;lt;String&amp;gt; databases, String fileName)&lt;/font&gt;&lt;/p&gt;&lt;br style=&quot;border-color: var(--border-color);&quot;&gt;&lt;p style=&quot;border-color: var(--border-color); margin: 0px; font-stretch: normal; font-size: 13px; line-height: normal; font-family: &amp;quot;Helvetica Neue&amp;quot;;&quot;&gt;&lt;font style=&quot;border-color: var(--border-color);&quot; color=&quot;#000000&quot;&gt;+ CreateDatabas Sing name&lt;/font&gt;&lt;/p&gt;&lt;br style=&quot;border-color: var(--border-color);&quot;&gt;&lt;p style=&quot;border-color: var(--border-color); margin: 0px; font-stretch: normal; font-size: 13px; line-height: normal; font-family: &amp;quot;Helvetica Neue&amp;quot;;&quot;&gt;&lt;font style=&quot;border-color: var(--border-color);&quot; color=&quot;#000000&quot;&gt;+ UseDatabase(String name)&lt;/font&gt;&lt;/p&gt;&lt;br style=&quot;border-color: var(--border-color);&quot;&gt;&lt;p style=&quot;border-color: var(--border-color); margin: 0px; font-stretch: normal; font-size: 13px; line-height: normal; font-family: &amp;quot;Helvetica Neue&amp;quot;;&quot;&gt;&lt;font style=&quot;border-color: var(--border-color);&quot; color=&quot;#000000&quot;&gt;+UseTable(String name)&lt;/font&gt;&lt;/p&gt;&lt;br style=&quot;border-color: var(--border-color);&quot;&gt;&lt;p style=&quot;border-color: var(--border-color); margin: 0px; font-stretch: normal; font-size: 13px; line-height: normal; font-family: &amp;quot;Helvetica Neue&amp;quot;;&quot;&gt;&lt;font style=&quot;border-color: var(--border-color);&quot; color=&quot;#000000&quot;&gt;+SearchRows(List&amp;lt;object&amp;gt; requestValues)&lt;/font&gt;&lt;/p&gt;&lt;br style=&quot;border-color: var(--border-color);&quot;&gt;&lt;p style=&quot;border-color: var(--border-color); margin: 0px; font-stretch: normal; font-size: 13px; line-height: normal; font-family: &amp;quot;Helvetica Neue&amp;quot;;&quot;&gt;&lt;font style=&quot;border-color: var(--border-color);&quot; color=&quot;#000000&quot;&gt;+InsertValues(List&amp;lt;object&amp;gt;, values)&amp;nbsp;&lt;/font&gt;&lt;/p&gt;&lt;br style=&quot;border-color: var(--border-color);&quot;&gt;&lt;p style=&quot;border-color: var(--border-color); margin: 0px; font-stretch: normal; font-size: 13px; line-height: normal; font-family: &amp;quot;Helvetica Neue&amp;quot;;&quot;&gt;&lt;font style=&quot;border-color: var(--border-color);&quot; color=&quot;#000000&quot;&gt;+ UpdateRow(Row row, List&amp;lt;object&amp;gt; newValues)&lt;/font&gt;&lt;/p&gt;&lt;br style=&quot;border-color: var(--border-color);&quot;&gt;&lt;p style=&quot;border-color: var(--border-color); margin: 0px; font-stretch: normal; font-size: 13px; line-height: normal; font-family: &amp;quot;Helvetica Neue&amp;quot;;&quot;&gt;&lt;font style=&quot;border-color: var(--border-color);&quot; color=&quot;#000000&quot;&gt;+DeleteRow(Sting name)&lt;/font&gt;&lt;/p&gt;&lt;br style=&quot;border-color: var(--border-color);&quot;&gt;&lt;p style=&quot;border-color: var(--border-color); margin: 0px; font-stretch: normal; font-size: 13px; line-height: normal; font-family: &amp;quot;Helvetica Neue&amp;quot;;&quot;&gt;&lt;font style=&quot;border-color: var(--border-color);&quot; color=&quot;#000000&quot;&gt;+CreateTable(String name)&lt;/font&gt;&lt;/p&gt;&lt;br style=&quot;border-color: var(--border-color);&quot;&gt;&lt;p style=&quot;border-color: var(--border-color); margin: 0px; font-stretch: normal; font-size: 13px; line-height: normal; font-family: &amp;quot;Helvetica Neue&amp;quot;;&quot;&gt;&lt;font style=&quot;border-color: var(--border-color);&quot; color=&quot;#000000&quot;&gt;+DeleteTable(String name)&lt;/font&gt;&lt;/p&gt;&lt;br style=&quot;border-color: var(--border-color);&quot;&gt;&lt;p style=&quot;border-color: var(--border-color); margin: 0px; font-stretch: normal; font-size: 13px; line-height: normal; font-family: &amp;quot;Helvetica Neue&amp;quot;;&quot;&gt;&lt;font style=&quot;border-color: var(--border-color);&quot; color=&quot;#000000&quot;&gt;+ AddRelation(String foreignKeyColumn, String origin Table, String originColumn)&lt;/font&gt;&lt;/p&gt;&lt;br style=&quot;border-color: var(--border-color);&quot;&gt;&lt;p style=&quot;border-color: var(--border-color); margin: 0px; font-stretch: normal; font-size: 13px; line-height: normal; font-family: &amp;quot;Helvetica Neue&amp;quot;;&quot;&gt;&lt;font style=&quot;border-color: var(--border-color);&quot; color=&quot;#000000&quot;&gt;+DeleteRelation(Relation relation)&lt;/font&gt;&lt;/p&gt;&lt;br style=&quot;border-color: var(--border-color);&quot;&gt;&lt;p style=&quot;border-color: var(--border-color); margin: 0px; font-stretch: normal; font-size: 13px; line-height: normal; font-family: &amp;quot;Helvetica Neue&amp;quot;;&quot;&gt;&lt;font style=&quot;border-color: var(--border-color);&quot; color=&quot;#000000&quot;&gt;+ MakeTableDistinct()&lt;/font&gt;&lt;/p&gt;" style="text;strokeColor=none;fillColor=none;align=left;verticalAlign=top;spacingLeft=4;spacingRight=4;overflow=hidden;rotatable=0;points=[[0,0.5],[1,0.5]];portConstraint=eastwest;whiteSpace=wrap;html=1;fontColor=#143642;" parent="X_ZYGH_IdwUrX7IhcFoQ-107" vertex="1">
          <mxGeometry y="248" width="510" height="454" as="geometry" />
        </mxCell>
        <mxCell id="X_ZYGH_IdwUrX7IhcFoQ-115" value="&lt;font style=&quot;font-size: 29px;&quot;&gt;Class&lt;/font&gt;" style="text;html=1;align=center;verticalAlign=middle;resizable=0;points=[];autosize=1;strokeColor=none;fillColor=none;fontColor=#143642;" parent="1" vertex="1">
          <mxGeometry x="-510" y="490" width="100" height="50" as="geometry" />
        </mxCell>
        <mxCell id="X_ZYGH_IdwUrX7IhcFoQ-117" style="edgeStyle=orthogonalEdgeStyle;rounded=0;orthogonalLoop=1;jettySize=auto;html=1;strokeColor=#A8201A;fontColor=#143642;fillColor=#FAE5C7;endArrow=block;endFill=0;" parent="1" target="X_ZYGH_IdwUrX7IhcFoQ-104" edge="1">
          <mxGeometry relative="1" as="geometry">
            <mxPoint x="190" y="620" as="sourcePoint" />
          </mxGeometry>
        </mxCell>
        <mxCell id="X_ZYGH_IdwUrX7IhcFoQ-118" style="edgeStyle=orthogonalEdgeStyle;rounded=0;orthogonalLoop=1;jettySize=auto;html=1;entryX=1.025;entryY=0.949;entryDx=0;entryDy=0;entryPerimeter=0;strokeColor=#A8201A;fontColor=#143642;fillColor=#FAE5C7;endArrow=block;endFill=0;" parent="1" target="X_ZYGH_IdwUrX7IhcFoQ-92" edge="1">
          <mxGeometry relative="1" as="geometry">
            <mxPoint x="230" y="792.0666666666666" as="sourcePoint" />
          </mxGeometry>
        </mxCell>
        <mxCell id="X_ZYGH_IdwUrX7IhcFoQ-119" style="edgeStyle=orthogonalEdgeStyle;rounded=0;orthogonalLoop=1;jettySize=auto;html=1;entryX=1;entryY=0.5;entryDx=0;entryDy=0;strokeColor=#A8201A;fontColor=#143642;fillColor=#FAE5C7;endArrow=block;endFill=0;" parent="1" target="X_ZYGH_IdwUrX7IhcFoQ-68" edge="1">
          <mxGeometry relative="1" as="geometry">
            <mxPoint x="220" y="941" as="sourcePoint" />
          </mxGeometry>
        </mxCell>
        <mxCell id="X_ZYGH_IdwUrX7IhcFoQ-120" style="edgeStyle=orthogonalEdgeStyle;rounded=0;orthogonalLoop=1;jettySize=auto;html=1;entryX=1;entryY=-0.09;entryDx=0;entryDy=0;entryPerimeter=0;strokeColor=#A8201A;fontColor=#143642;fillColor=#FAE5C7;endArrow=diamond;endFill=0;" parent="1" source="X_ZYGH_IdwUrX7IhcFoQ-92" target="X_ZYGH_IdwUrX7IhcFoQ-110" edge="1">
          <mxGeometry relative="1" as="geometry" />
        </mxCell>
        <mxCell id="X_ZYGH_IdwUrX7IhcFoQ-170" value="1..1" style="edgeLabel;html=1;align=center;verticalAlign=middle;resizable=0;points=[];fontSize=11;fontFamily=Helvetica;fontColor=#143642;" parent="X_ZYGH_IdwUrX7IhcFoQ-120" vertex="1" connectable="0">
          <mxGeometry x="-0.7753" y="2" relative="1" as="geometry">
            <mxPoint x="1" as="offset" />
          </mxGeometry>
        </mxCell>
        <mxCell id="X_ZYGH_IdwUrX7IhcFoQ-171" value="1..1" style="edgeLabel;html=1;align=center;verticalAlign=middle;resizable=0;points=[];fontSize=11;fontFamily=Helvetica;fontColor=#143642;" parent="X_ZYGH_IdwUrX7IhcFoQ-120" vertex="1" connectable="0">
          <mxGeometry x="0.6832" y="-2" relative="1" as="geometry">
            <mxPoint as="offset" />
          </mxGeometry>
        </mxCell>
        <mxCell id="X_ZYGH_IdwUrX7IhcFoQ-122" style="edgeStyle=orthogonalEdgeStyle;rounded=0;orthogonalLoop=1;jettySize=auto;html=1;entryX=1;entryY=0.5;entryDx=0;entryDy=0;strokeColor=#A8201A;fontColor=#143642;fillColor=#FAE5C7;endArrow=diamond;endFill=0;endSize=16;" parent="1" source="X_ZYGH_IdwUrX7IhcFoQ-68" target="X_ZYGH_IdwUrX7IhcFoQ-110" edge="1">
          <mxGeometry relative="1" as="geometry" />
        </mxCell>
        <mxCell id="X_ZYGH_IdwUrX7IhcFoQ-168" value="1..1" style="edgeLabel;html=1;align=center;verticalAlign=middle;resizable=0;points=[];fontSize=11;fontFamily=Helvetica;fontColor=#143642;" parent="X_ZYGH_IdwUrX7IhcFoQ-122" vertex="1" connectable="0">
          <mxGeometry x="0.605" y="1" relative="1" as="geometry">
            <mxPoint as="offset" />
          </mxGeometry>
        </mxCell>
        <mxCell id="X_ZYGH_IdwUrX7IhcFoQ-169" value="1..1" style="edgeLabel;html=1;align=center;verticalAlign=middle;resizable=0;points=[];fontSize=11;fontFamily=Helvetica;fontColor=#143642;" parent="X_ZYGH_IdwUrX7IhcFoQ-122" vertex="1" connectable="0">
          <mxGeometry x="-0.8394" y="-1" relative="1" as="geometry">
            <mxPoint x="1" as="offset" />
          </mxGeometry>
        </mxCell>
        <mxCell id="X_ZYGH_IdwUrX7IhcFoQ-124" value="&lt;p style=&quot;margin: 0px; font-style: normal; font-variant-caps: normal; font-weight: normal; font-stretch: normal; font-size: 13px; line-height: normal; font-family: &amp;quot;Helvetica Neue&amp;quot;;&quot;&gt;&lt;/p&gt;" style="text;whiteSpace=wrap;html=1;fontColor=#143642;" parent="1" vertex="1">
          <mxGeometry x="470" y="582" width="320" height="330" as="geometry" />
        </mxCell>
        <mxCell id="X_ZYGH_IdwUrX7IhcFoQ-139" value="" style="edgeStyle=orthogonalEdgeStyle;rounded=0;orthogonalLoop=1;jettySize=auto;html=1;strokeColor=#A8201A;fontColor=#143642;fillColor=#FAE5C7;endArrow=diamond;endFill=1;endSize=18;" parent="1" source="X_ZYGH_IdwUrX7IhcFoQ-76" target="X_ZYGH_IdwUrX7IhcFoQ-110" edge="1">
          <mxGeometry relative="1" as="geometry" />
        </mxCell>
        <mxCell id="X_ZYGH_IdwUrX7IhcFoQ-166" value="1..1" style="edgeLabel;html=1;align=center;verticalAlign=middle;resizable=0;points=[];fontSize=11;fontFamily=Helvetica;fontColor=#143642;" parent="X_ZYGH_IdwUrX7IhcFoQ-139" vertex="1" connectable="0">
          <mxGeometry x="0.5077" y="-1" relative="1" as="geometry">
            <mxPoint as="offset" />
          </mxGeometry>
        </mxCell>
        <mxCell id="X_ZYGH_IdwUrX7IhcFoQ-167" value="0..*" style="edgeLabel;html=1;align=center;verticalAlign=middle;resizable=0;points=[];fontSize=11;fontFamily=Helvetica;fontColor=#143642;" parent="X_ZYGH_IdwUrX7IhcFoQ-139" vertex="1" connectable="0">
          <mxGeometry x="-0.7576" y="-1" relative="1" as="geometry">
            <mxPoint as="offset" />
          </mxGeometry>
        </mxCell>
        <mxCell id="X_ZYGH_IdwUrX7IhcFoQ-145" style="edgeStyle=orthogonalEdgeStyle;shape=connector;rounded=0;orthogonalLoop=1;jettySize=auto;html=1;entryX=0.022;entryY=1.114;entryDx=0;entryDy=0;entryPerimeter=0;labelBackgroundColor=default;strokeColor=#A8201A;align=center;verticalAlign=middle;fontFamily=Helvetica;fontSize=11;fontColor=#143642;endArrow=diamond;endFill=0;endSize=18;fillColor=#FAE5C7;" parent="1" source="X_ZYGH_IdwUrX7IhcFoQ-58" target="X_ZYGH_IdwUrX7IhcFoQ-72" edge="1">
          <mxGeometry relative="1" as="geometry" />
        </mxCell>
        <mxCell id="X_ZYGH_IdwUrX7IhcFoQ-154" value="1..1" style="edgeLabel;html=1;align=center;verticalAlign=middle;resizable=0;points=[];fontSize=11;fontFamily=Helvetica;fontColor=#143642;" parent="X_ZYGH_IdwUrX7IhcFoQ-145" vertex="1" connectable="0">
          <mxGeometry x="0.1426" y="1" relative="1" as="geometry">
            <mxPoint x="1" as="offset" />
          </mxGeometry>
        </mxCell>
        <mxCell id="X_ZYGH_IdwUrX7IhcFoQ-156" value="1..1" style="edgeLabel;html=1;align=center;verticalAlign=middle;resizable=0;points=[];fontSize=11;fontFamily=Helvetica;fontColor=#143642;" parent="X_ZYGH_IdwUrX7IhcFoQ-145" vertex="1" connectable="0">
          <mxGeometry x="0.8339" y="2" relative="1" as="geometry">
            <mxPoint as="offset" />
          </mxGeometry>
        </mxCell>
        <mxCell id="X_ZYGH_IdwUrX7IhcFoQ-146" style="edgeStyle=orthogonalEdgeStyle;shape=connector;rounded=0;orthogonalLoop=1;jettySize=auto;html=1;entryX=0.75;entryY=1;entryDx=0;entryDy=0;labelBackgroundColor=default;strokeColor=#A8201A;align=center;verticalAlign=middle;fontFamily=Helvetica;fontSize=11;fontColor=#143642;endArrow=diamond;endFill=0;endSize=18;fillColor=#FAE5C7;" parent="1" source="X_ZYGH_IdwUrX7IhcFoQ-58" target="X_ZYGH_IdwUrX7IhcFoQ-71" edge="1">
          <mxGeometry relative="1" as="geometry" />
        </mxCell>
        <mxCell id="X_ZYGH_IdwUrX7IhcFoQ-155" value="1..1" style="edgeLabel;html=1;align=center;verticalAlign=middle;resizable=0;points=[];fontSize=11;fontFamily=Helvetica;fontColor=#143642;" parent="X_ZYGH_IdwUrX7IhcFoQ-146" vertex="1" connectable="0">
          <mxGeometry x="-0.2289" y="4" relative="1" as="geometry">
            <mxPoint as="offset" />
          </mxGeometry>
        </mxCell>
        <mxCell id="X_ZYGH_IdwUrX7IhcFoQ-157" value="1..1" style="edgeLabel;html=1;align=center;verticalAlign=middle;resizable=0;points=[];fontSize=11;fontFamily=Helvetica;fontColor=#143642;" parent="X_ZYGH_IdwUrX7IhcFoQ-146" vertex="1" connectable="0">
          <mxGeometry x="0.818" relative="1" as="geometry">
            <mxPoint as="offset" />
          </mxGeometry>
        </mxCell>
        <mxCell id="X_ZYGH_IdwUrX7IhcFoQ-163" style="edgeStyle=orthogonalEdgeStyle;shape=connector;rounded=0;orthogonalLoop=1;jettySize=auto;html=1;labelBackgroundColor=default;strokeColor=#A8201A;align=center;verticalAlign=middle;fontFamily=Helvetica;fontSize=11;fontColor=#143642;endArrow=diamond;endFill=1;endSize=18;fillColor=#FAE5C7;" parent="1" source="X_ZYGH_IdwUrX7IhcFoQ-48" target="X_ZYGH_IdwUrX7IhcFoQ-76" edge="1">
          <mxGeometry relative="1" as="geometry" />
        </mxCell>
        <mxCell id="X_ZYGH_IdwUrX7IhcFoQ-164" value="0..*" style="edgeLabel;html=1;align=center;verticalAlign=middle;resizable=0;points=[];fontSize=11;fontFamily=Helvetica;fontColor=#143642;" parent="X_ZYGH_IdwUrX7IhcFoQ-163" vertex="1" connectable="0">
          <mxGeometry x="-0.735" relative="1" as="geometry">
            <mxPoint x="1" as="offset" />
          </mxGeometry>
        </mxCell>
        <mxCell id="X_ZYGH_IdwUrX7IhcFoQ-165" value="1..1" style="edgeLabel;html=1;align=center;verticalAlign=middle;resizable=0;points=[];fontSize=11;fontFamily=Helvetica;fontColor=#143642;" parent="X_ZYGH_IdwUrX7IhcFoQ-163" vertex="1" connectable="0">
          <mxGeometry x="0.5299" y="-3" relative="1" as="geometry">
            <mxPoint x="-1" as="offset" />
          </mxGeometry>
        </mxCell>
      </root>
    </mxGraphModel>
  </diagram>
</mxfile>
